<?xml version="1.0" encoding="utf-8"?>
<!-- Generator: Adobe Illustrator 23.0.6, SVG Export Plug-In . SVG Version: 6.00 Build 0)  -->
<svg version="1.1" id="Layer_1" xmlns="http://www.w3.org/2000/svg" xmlns:xlink="http://www.w3.org/1999/xlink" x="0px" y="0px"
	 viewBox="0 0 36 25" style="enable-background:new 0 0 36 25;" xml:space="preserve">
<style type="text/css">
	.st0{fill-rule:evenodd;clip-rule:evenodd;fill:#FFFFFF;}
</style>
<title>Email</title>
<desc>Created with Sketch.</desc>
<g id="Page-1">
	<g id="Social-Icons---Isolated" transform="translate(-394.000000, -1411.000000)">
		<path id="Email" class="st0" d="M394.2,1413.4v20.4c0,1.1,0.8,2,1.9,2h31.8c1.1,0,1.9-0.9,1.9-2v-20.4c0-1.2-0.7-2.2-1.9-2.2
			h-31.8C394.8,1411.2,394.2,1412.2,394.2,1413.4 M397.1,1415.2c0-0.5,0.3-0.8,0.8-0.8c0.3,0,11.9,7.3,12.6,7.8l1.8,1.1
			c0.6-0.4,1.1-0.7,1.7-1.1c1.2-0.8,12-7.8,12.3-7.8c0.5,0,0.8,0.3,0.8,0.8c0,0.5-1,1-1.7,1.4c-4.1,2.5-8.2,5.2-12.3,7.8
			c-0.2,0.2-0.7,0.5-1,0.5c-0.4-0.1-12.1-7.6-14.3-8.9C397.5,1415.8,397.1,1415.6,397.1,1415.2"/>
	</g>
</g>
</svg>
