<svg id="instagram_2" data-name="instagram 2" xmlns="http://www.w3.org/2000/svg" width="26" height="26" viewBox="0 0 26 26">
  <path id="Path_5" data-name="Path 5" d="M17.875,0H8.125A8.123,8.123,0,0,0,0,8.125v9.75A8.123,8.123,0,0,0,8.125,26h9.75A8.123,8.123,0,0,0,26,17.875V8.125A8.123,8.123,0,0,0,17.875,0Zm5.688,17.875a5.691,5.691,0,0,1-5.687,5.688H8.125a5.691,5.691,0,0,1-5.687-5.687V8.125A5.691,5.691,0,0,1,8.125,2.438h9.75a5.691,5.691,0,0,1,5.688,5.688Z" fill="#fff"/>
  <path id="Path_6" data-name="Path 6" d="M134.5,128a6.5,6.5,0,1,0,6.5,6.5A6.5,6.5,0,0,0,134.5,128Zm0,10.563a4.063,4.063,0,1,1,4.063-4.062A4.068,4.068,0,0,1,134.5,138.563Z" transform="translate(-121.5 -121.5)" fill="#fff"/>
  <circle id="Ellipse_2" data-name="Ellipse 2" cx="0.868" cy="0.868" r="0.868" transform="translate(19.119 5.144)" fill="#fff"/>
</svg>
